<?xml version="1.0" encoding="UTF-8" standalone="no"?>
<!-- Created with Inkscape (http://www.inkscape.org/) -->

<svg
   width="300mm"
   height="300mm"
   viewBox="0 0 300 300"
   version="1.1"
   id="svg1"
   xmlns:xlink="http://www.w3.org/1999/xlink"
   xmlns="http://www.w3.org/2000/svg"
   xmlns:svg="http://www.w3.org/2000/svg">
  <defs
     id="defs1">
    <linearGradient
       id="linearGradient2">
      <stop
         style="stop-color:#3a9ff1;stop-opacity:1;"
         offset="0"
         id="stop2" />
      <stop
         style="stop-color:#64b7ff;stop-opacity:1;"
         offset="1"
         id="stop3" />
    </linearGradient>
    <linearGradient
       xlink:href="#linearGradient2"
       id="linearGradient3"
       x1="52.905449"
       y1="197.0945"
       x2="247.09454"
       y2="2.9053986"
       gradientUnits="userSpaceOnUse"
       gradientTransform="translate(-4.9948362e-7,50)" />
  </defs>
  <g
     id="layer1">
    <path
       id="path1"
       style="fill:#ffffff;fill-opacity:1;stroke:url(#linearGradient3);stroke-width:15;stroke-linecap:round;stroke-linejoin:round;stroke-dasharray:none"
       d="M 171.31265,68.257469 A 60,60 0 0 0 114.20606,109.85028 40,40 0 0 0 86.645986,98.840612 40,40 0 0 0 46.645844,138.84076 a 40,40 0 0 0 1.191659,9.69191 40,42.646553 0 0 0 -27.649992,40.5629 40,42.646553 0 0 0 35.201985,42.33902 v 0.0408 h 0.329696 a 40,42.646553 0 0 0 4.468461,0.26717 40,42.646553 0 0 0 4.467944,-0.26717 H 235.5201 v -0.015 a 45,45 0 0 0 44.29239,-44.99466 45,45 0 0 0 -44.99984,-44.99984 45,45 0 0 0 -5.03638,0.28267 60,60 0 0 0 1.53634,-13.49117 60,60 0 0 0 -59.99996,-59.999951 z" />
  </g>
</svg>
