<?xml version="1.0" encoding="UTF-8" standalone="no"?>
<!-- Created with Inkscape (http://www.inkscape.org/) -->

<svg
   width="512mm"
   height="512mm"
   viewBox="0 0 512 512"
   version="1.1"
   id="svg1"
   xmlns:xlink="http://www.w3.org/1999/xlink"
   xmlns="http://www.w3.org/2000/svg"
   xmlns:svg="http://www.w3.org/2000/svg">
  <defs
     id="defs1">
    <linearGradient
       id="linearGradient1">
      <stop
         style="stop-color:#3a9ff1;stop-opacity:1;"
         offset="0"
         id="stop1" />
      <stop
         style="stop-color:#64b7ff;stop-opacity:1;"
         offset="1"
         id="stop4" />
    </linearGradient>
    <linearGradient
       xlink:href="#linearGradient1"
       id="linearGradient4"
       x1="52.905411"
       y1="247.09459"
       x2="247.0946"
       y2="52.905403"
       gradientUnits="userSpaceOnUse" />
    <linearGradient
       xlink:href="#linearGradient1"
       id="linearGradient5"
       gradientUnits="userSpaceOnUse"
       x1="52.905411"
       y1="247.09459"
       x2="247.0946"
       y2="52.905403" />
  </defs>
  <g
     id="layer1">
    <g
       id="layer1-5"
       transform="matrix(1.3985144,0,0,1.3985144,46.222836,46.222838)"
       style="fill:#ffffff;fill-opacity:1;stroke:url(#linearGradient4);stroke-width:14.3009;stroke-dasharray:none">
      <path
         id="path1"
         style="fill:#ffffff;fill-opacity:1;stroke:url(#linearGradient5);stroke-width:14.3009;stroke-linecap:round;stroke-linejoin:round;stroke-dasharray:none"
         d="M 171.31265,68.257469 A 60,60 0 0 0 114.20606,109.85028 40,40 0 0 0 86.645986,98.840612 40,40 0 0 0 46.645844,138.84076 a 40,40 0 0 0 1.191659,9.69191 40,42.646553 0 0 0 -27.649992,40.5629 40,42.646553 0 0 0 35.201985,42.33902 v 0.0408 h 0.329696 a 40,42.646553 0 0 0 4.468461,0.26717 40,42.646553 0 0 0 4.467944,-0.26717 H 235.5201 v -0.015 a 45,45 0 0 0 44.29239,-44.99466 45,45 0 0 0 -44.99984,-44.99984 45,45 0 0 0 -5.03638,0.28267 60,60 0 0 0 1.53634,-13.49117 60,60 0 0 0 -59.99996,-59.999951 z" />
    </g>
  </g>
</svg>
